<?xml version="1.0" standalone="no"?>
<!DOCTYPE svg PUBLIC "-//W3C//DTD SVG 20010904//EN"
 "http://www.w3.org/TR/2001/REC-SVG-20010904/DTD/svg10.dtd">
<svg version="1.0" xmlns="http://www.w3.org/2000/svg"
 width="2048.000000pt" height="2048.000000pt" viewBox="0 0 2048.000000 2048.000000"
 preserveAspectRatio="xMidYMid meet">

<g transform="translate(0.000000,2048.000000) scale(0.100000,-0.100000)"
fill="#000000" stroke="none">
<path d="M10098 20471 c-53 -3 -98 -8 -101 -11 -2 -3 -75 -133 -162 -290 -86
-157 -164 -295 -172 -308 -14 -23 -20 -15 -219 260 -113 156 -209 286 -212
290 -8 8 -260 -6 -268 -15 -4 -3 122 -178 278 -389 156 -211 287 -388 291
-394 3 -6 14 -130 23 -275 9 -145 18 -266 20 -268 2 -2 55 0 119 4 l115 7 0
46 c0 26 -7 148 -15 271 -10 163 -11 230 -3 245 6 12 111 194 233 406 122 212
227 395 234 408 13 25 25 24 -161 13z"/>
<path d="M10846 20418 c-3 -18 -8 -67 -12 -109 l-6 -75 183 -23 c101 -12 198
-24 214 -27 l31 -5 -68 -562 c-36 -309 -64 -565 -60 -568 10 -8 223 -31 230
-24 3 3 34 254 69 558 35 303 65 557 67 563 3 7 71 3 216 -14 116 -13 213 -23
215 -21 6 6 28 210 23 215 -5 4 -1034 124 -1072 124 -19 0 -25 -6 -30 -32z"/>
<path d="M7715 20156 c-67 -15 -101 -27 -102 -37 -1 -8 62 -309 141 -669 109
-502 146 -655 157 -653 57 8 906 197 913 203 8 8 -21 180 -35 202 -5 7 -122
-15 -354 -66 -191 -43 -348 -76 -349 -74 -2 2 -55 246 -120 543 -65 297 -120
548 -122 558 -6 20 -3 21 -129 -7z"/>
<path d="M12766 20142 c-12 -21 -397 -1294 -393 -1299 8 -7 944 -293 961 -293
19 0 74 189 58 199 -7 4 -173 56 -370 116 -196 60 -359 110 -361 111 -5 4 99
337 108 345 3 4 148 -38 321 -92 173 -55 319 -99 325 -99 10 0 72 197 64 204
-2 2 -148 47 -324 101 -176 53 -321 98 -323 100 -3 2 98 328 104 334 2 2 164
-47 361 -108 197 -61 363 -111 368 -111 11 0 76 198 66 204 -5 3 -182 57 -919
281 -23 7 -44 10 -46 7z"/>
<path d="M6278 19670 c-77 -13 -199 -57 -268 -98 -94 -54 -227 -190 -273 -279
-53 -102 -77 -204 -77 -327 0 -128 19 -207 77 -326 38 -79 59 -108 132 -181
74 -73 102 -94 181 -132 122 -58 181 -71 310 -71 281 1 537 160 659 409 120
246 76 554 -109 776 -145 172 -406 267 -632 229z m182 -236 c256 -58 432 -351
365 -609 -64 -243 -310 -392 -548 -330 -259 67 -429 353 -362 610 42 161 175
289 343 329 76 19 120 19 202 0z"/>
<path d="M14685 19284 c-38 -8 -113 -35 -165 -61 -152 -74 -278 -214 -347
-385 -118 -290 -18 -645 230 -822 150 -107 294 -151 462 -143 90 5 196 25 212
40 3 4 -7 52 -23 107 l-28 102 -30 -6 c-138 -24 -182 -27 -245 -16 -146 24
-274 118 -338 247 -32 66 -37 86 -41 165 -5 110 8 179 55 277 89 187 302 306
490 272 154 -28 284 -131 356 -282 23 -49 46 -88 52 -89 25 -1 205 76 205 88
0 22 -51 134 -85 188 -47 72 -134 156 -219 209 -178 111 -357 147 -541 109z"/>
<path d="M4596 18710 c-115 -21 -200 -69 -520 -302 -93 -68 -169 -127 -169
-131 1 -12 777 -1106 784 -1107 17 -1 190 134 186 145 -3 7 -57 85 -121 174
-64 89 -116 165 -116 170 0 4 53 46 118 92 217 155 316 277 348 429 42 205
-97 445 -297 513 -60 20 -152 28 -213 17z m118 -241 c25 -7 57 -29 87 -60 105
-108 98 -251 -18 -360 -44 -42 -258 -199 -271 -199 -9 0 -268 358 -278 383 -7
19 230 193 305 223 62 26 115 30 175 13z"/>
<path d="M15921 17945 c-227 -273 -422 -507 -433 -521 -24 -30 -23 -33 87
-123 l73 -60 182 219 c110 132 187 217 194 213 23 -14 486 -404 486 -409 0 -4
-75 -97 -167 -208 -93 -111 -174 -209 -181 -218 -12 -15 -3 -25 73 -90 48 -40
90 -73 94 -73 13 0 871 1029 868 1041 -1 6 -40 44 -86 83 l-84 72 -26 -31
c-14 -17 -96 -114 -181 -215 -85 -101 -158 -183 -162 -182 -18 5 -497 410
-493 417 3 5 84 102 180 216 96 115 175 211 175 214 -1 6 -166 144 -178 147
-4 2 -193 -220 -421 -492z"/>
<path d="M9760 17619 c-821 -54 -1609 -237 -2375 -554 -232 -95 -690 -326
-910 -457 -785 -469 -1453 -1049 -2010 -1746 -98 -122 -122 -159 -113 -168 7
-6 110 -69 228 -139 1000 -597 2292 -1409 4884 -3074 567 -364 691 -440 701
-429 7 7 203 315 436 683 769 1219 1389 2183 2169 3370 427 649 500 756 513
749 100 -56 3012 -1992 3128 -2080 195 -147 375 -317 543 -509 l26 -30 -24 55
c-180 414 -487 939 -784 1340 -221 298 -410 519 -686 799 -582 590 -1178 1027
-1911 1402 -904 462 -1872 725 -2905 789 -190 11 -726 11 -910 -1z"/>
<path d="M17410 16555 c-289 -223 -531 -412 -539 -420 -12 -12 -3 -27 58 -104
45 -56 77 -88 84 -84 7 4 177 137 380 295 203 158 370 288 372 288 2 0 -1 -17
-7 -37 -6 -21 -75 -287 -154 -593 l-143 -555 57 -75 c32 -41 63 -75 69 -75 14
0 1073 816 1073 826 0 4 -30 46 -66 93 -42 55 -72 85 -80 82 -8 -3 -174 -130
-370 -282 -195 -151 -358 -273 -361 -271 -2 3 61 257 141 564 80 307 146 564
146 571 0 10 -126 182 -133 182 -1 0 -238 -182 -527 -405z"/>
<path d="M2152 16489 c-82 -14 -199 -56 -280 -100 -398 -213 -582 -669 -445
-1104 180 -571 841 -818 1366 -509 213 124 383 365 433 613 22 114 15 324 -15
431 -89 312 -340 562 -651 650 -86 25 -318 36 -408 19z"/>
<path d="M18538 14901 l-596 -326 53 -100 c34 -63 60 -100 69 -99 21 2 1186
634 1186 644 0 9 -99 193 -108 201 -4 3 -276 -141 -604 -320z"/>
<path d="M3802 13893 c-746 -1318 -1068 -2823 -927 -4334 148 -1580 806 -3070
1880 -4259 144 -159 443 -454 604 -594 203 -177 534 -435 683 -530 l27 -18 62
124 c34 68 115 224 181 348 641 1203 1388 2461 2931 4939 176 282 320 520 321
529 1 9 -410 297 -1059 744 -2608 1794 -3338 2307 -4337 3040 -141 103 -258
188 -261 188 -2 0 -49 -80 -105 -177z"/>
<path d="M19099 14045 c-141 -28 -268 -96 -369 -196 -75 -73 -126 -154 -166
-261 -35 -96 -45 -284 -20 -392 34 -143 130 -307 233 -394 l47 -40 -42 -95
c-23 -52 -42 -98 -42 -101 0 -4 10 -10 23 -15 12 -5 59 -25 104 -44 l81 -36
37 92 c20 51 38 93 40 95 1 2 40 -5 86 -14 212 -43 457 28 615 178 127 121
192 244 215 412 15 110 2 229 -39 345 -41 115 -86 185 -178 278 -67 67 -98 89
-175 127 -150 72 -296 92 -450 61z m270 -250 c246 -58 399 -315 335 -560 -41
-159 -176 -290 -349 -341 -58 -17 -218 -24 -232 -11 -3 4 22 70 56 148 34 78
60 143 58 145 -8 8 -191 84 -202 84 -7 0 -36 -63 -66 -141 l-54 -141 -43 48
c-206 226 -140 572 135 717 116 61 245 79 362 52z"/>
<path d="M13537 13851 c-534 -794 -1150 -1689 -2045 -2971 -179 -255 -325
-470 -326 -478 -1 -7 222 -157 494 -333 1310 -847 1499 -966 1635 -1035 514
-259 1111 -301 1675 -118 761 248 1332 918 1467 1723 25 146 25 491 0 646 -61
389 -213 741 -447 1035 -90 113 -294 310 -400 387 -47 34 -504 340 -1016 681
l-932 620 -105 -157z"/>
<path d="M476 13333 c-41 -144 -267 -1045 -263 -1049 8 -9 199 -56 204 -51 2
3 27 92 55 198 28 107 54 198 58 203 5 4 254 -55 555 -133 301 -78 549 -140
552 -138 11 12 54 220 47 227 -5 4 -250 69 -544 145 -294 76 -538 141 -542
144 -4 4 16 100 46 214 l53 207 -41 11 c-23 6 -63 17 -90 25 -65 18 -84 18
-90 -3z"/>
<path d="M19880 11974 c-201 -23 -401 -50 -445 -58 -172 -34 -321 -135 -387
-263 -49 -94 -63 -159 -61 -283 5 -365 217 -597 548 -600 76 -1 877 90 889
101 5 5 3 54 -4 118 -11 96 -15 111 -31 111 -10 0 -186 -20 -391 -45 -205 -25
-407 -46 -449 -46 -115 -1 -179 21 -243 84 -71 69 -98 140 -99 258 -1 78 2 92
31 152 44 89 105 136 219 170 28 9 235 37 460 63 224 26 409 48 410 48 1 1 -5
53 -13 116 -7 63 -14 116 -14 118 0 5 -69 -2 -420 -44z"/>
<path d="M76 11423 c-3 -42 -6 -96 -6 -120 0 -42 1 -43 34 -43 18 0 209 -11
422 -25 416 -26 463 -34 547 -87 181 -115 180 -444 -3 -560 -84 -54 -134 -62
-335 -54 -99 4 -301 15 -448 24 -267 17 -268 17 -272 -3 -2 -11 -6 -65 -10
-121 l-6 -100 348 -25 c426 -29 613 -31 698 -5 183 55 309 188 361 381 24 92
29 255 10 345 -45 213 -203 361 -431 405 -63 12 -781 65 -880 65 -20 0 -23 -6
-29 -77z"/>
<path d="M19080 10038 c0 -1 -18 -230 -39 -508 -22 -278 -38 -506 -37 -507 6
-7 202 -20 207 -14 3 3 19 178 35 389 l28 382 40 0 c44 0 319 -21 324 -25 1
-1 -10 -154 -24 -339 -15 -185 -25 -339 -22 -341 2 -2 51 -5 108 -7 l105 -3
26 332 c14 183 28 335 31 338 5 6 337 -20 343 -27 2 -2 -9 -175 -24 -383 -16
-209 -28 -381 -27 -382 1 -1 49 -5 107 -9 l105 -7 38 498 c26 336 35 500 28
504 -6 3 -291 28 -634 54 -343 26 -644 50 -670 53 -27 3 -48 4 -48 2z"/>
<path d="M17535 9732 c-125 -320 -307 -629 -539 -917 -115 -142 -360 -386
-501 -499 -503 -402 -1079 -645 -1740 -733 -183 -24 -647 -24 -829 0 -469 63
-885 200 -1261 417 -103 59 -416 266 -845 560 -102 70 -436 298 -742 508 -306
210 -563 384 -570 387 -9 4 -93 -106 -253 -332 -1882 -2659 -2826 -3928 -3692
-4963 -155 -184 -178 -217 -164 -226 60 -41 321 -185 506 -279 723 -366 1509
-610 2318 -720 557 -75 1182 -85 1752 -29 2039 202 3915 1264 5157 2919 835
1114 1335 2436 1449 3830 17 219 13 227 -46 77z"/>
<path d="M113 9557 c-75 -9 -83 -12 -83 -31 0 -20 131 -1079 134 -1083 3 -4
209 27 214 32 3 3 -6 98 -20 213 -15 114 -25 208 -23 210 1 1 251 34 556 73
305 38 559 71 565 73 7 3 6 38 -4 118 -8 62 -15 114 -17 116 -1 1 -256 -29
-566 -67 -310 -38 -565 -68 -565 -68 -1 1 -14 98 -30 215 l-28 212 -25 -1
c-14 -1 -63 -6 -108 -12z"/>
<path d="M998 7872 c-439 -120 -648 -181 -648 -190 0 -7 12 -58 27 -113 18
-69 31 -99 41 -99 22 0 1285 342 1295 350 10 9 -44 223 -58 226 -5 1 -301 -77
-657 -174z"/>
<path d="M18510 6842 c-83 -47 -235 -197 -293 -287 -267 -417 -240 -769 71
-923 72 -35 81 -37 172 -37 91 0 98 2 165 37 98 53 187 137 321 304 120 150
145 174 179 174 78 0 51 -130 -57 -276 -54 -72 -157 -166 -230 -210 -29 -17
-52 -37 -50 -45 4 -15 150 -340 156 -346 2 -3 24 6 48 18 235 120 459 400 550
689 19 63 23 96 23 210 l0 135 -37 76 c-59 121 -159 199 -300 235 -178 46
-332 -45 -560 -332 -98 -124 -158 -184 -183 -184 -21 0 -55 36 -55 58 1 81
157 278 284 358 25 16 46 33 46 38 0 10 -167 326 -179 338 -4 4 -36 -9 -71
-30z"/>
<path d="M1535 6636 c-286 -123 -523 -222 -526 -220 -3 1 -41 85 -84 186 -43
101 -82 187 -86 192 -8 9 -57 -7 -156 -50 l-51 -23 215 -503 c118 -277 218
-506 222 -509 7 -7 201 72 201 83 0 4 -38 94 -84 202 l-84 195 517 221 c284
122 520 225 524 229 8 8 -65 195 -81 213 -4 4 -241 -94 -527 -216z"/>
<path d="M2345 5646 c-106 -34 -200 -108 -239 -189 -54 -110 -45 -228 36 -472
63 -187 72 -272 36 -324 -65 -95 -180 -92 -271 8 -74 82 -115 201 -120 344
l-2 84 -104 6 c-58 3 -109 3 -114 0 -14 -8 -1 -184 18 -258 22 -83 83 -208
140 -283 55 -73 151 -145 229 -173 69 -24 177 -25 243 -3 60 20 149 82 187
130 52 66 69 127 63 234 -4 81 -13 121 -62 270 -85 260 -85 334 -1 388 111 70
241 -3 325 -183 41 -87 55 -156 54 -276 l-2 -106 106 -12 c58 -7 108 -9 112
-6 3 4 5 61 5 128 -2 149 -24 240 -89 366 -84 162 -216 290 -337 326 -62 18
-158 19 -213 1z"/>
<path d="M17428 5168 c-30 -40 -91 -123 -136 -184 -45 -62 -82 -116 -82 -120
1 -10 1126 -838 1144 -841 10 -3 271 341 281 370 4 10 -1102 829 -1140 843 -8
3 -34 -23 -67 -68z"/>
<path d="M3051 3965 c-264 -263 -481 -480 -481 -484 0 -3 35 -43 78 -89 l77
-83 338 332 c323 317 337 330 332 293 -4 -22 -39 -288 -79 -591 l-72 -553 78
-77 77 -77 486 479 486 478 -73 76 c-39 42 -75 80 -79 85 -5 5 -162 -142 -351
-327 -188 -185 -344 -334 -347 -332 -2 2 32 274 75 605 l78 601 -70 70 -71 71
-482 -477z"/>
<path d="M16620 4061 c-81 -26 -156 -66 -235 -126 -84 -63 -611 -556 -607
-568 3 -10 965 -1035 973 -1036 3 -1 83 71 177 160 l172 161 -58 63 c-31 35
-93 102 -136 150 l-80 86 36 36 36 36 236 -57 236 -58 59 54 c232 211 337 314
327 319 -6 4 -130 33 -276 64 -146 32 -269 61 -273 65 -5 4 -1 33 8 65 27 92
18 222 -21 305 -64 133 -181 243 -301 280 -82 25 -197 26 -273 1z m128 -467
c33 -22 62 -74 62 -112 0 -54 -24 -92 -125 -192 -81 -81 -97 -92 -108 -80 -7
8 -51 54 -97 103 l-84 87 35 36 c73 77 171 157 207 170 40 15 74 11 110 -12z"/>
<path d="M4611 2560 c-216 -303 -391 -556 -388 -563 3 -6 45 -40 95 -74 l90
-63 394 553 c216 303 393 555 393 559 0 6 -179 138 -188 138 -2 0 -180 -248
-396 -550z"/>
<path d="M14578 2602 c-193 -109 -206 -118 -202 -142 7 -41 184 -1485 184
-1503 0 -9 5 -17 12 -17 21 0 438 242 438 254 0 6 -7 49 -15 96 -8 47 -15 88
-15 92 0 6 389 231 422 243 9 4 43 -17 89 -54 41 -34 79 -61 84 -61 16 0 438
244 437 253 -1 7 -1182 927 -1217 949 -6 3 -103 -46 -217 -110z m422 -615 c71
-60 130 -111 130 -115 -1 -10 -211 -124 -218 -118 -9 10 -59 347 -51 344 5 -2
67 -52 139 -111z"/>
<path d="M7166 1918 c-9 -29 -94 -331 -190 -671 -96 -339 -177 -625 -180 -635
-5 -16 28 -28 281 -100 380 -108 411 -114 573 -115 106 0 152 5 213 21 118 32
211 85 292 167 82 83 127 154 166 267 129 376 -4 689 -368 872 -101 51 -149
67 -458 156 -154 44 -288 83 -297 86 -14 4 -20 -6 -32 -48z m440 -499 c201
-62 282 -155 272 -311 -11 -170 -107 -275 -261 -286 -76 -5 -261 32 -254 52 2
6 39 136 82 289 44 152 82 277 86 277 4 0 38 -10 75 -21z"/>
<path d="M12992 1875 c-56 -10 -737 -210 -750 -220 -4 -3 414 -1354 421 -1361
6 -6 438 123 448 134 4 4 -15 77 -42 162 -73 233 -78 203 43 240 352 109 527
285 530 535 2 99 -14 168 -59 263 -97 205 -316 297 -591 247z m134 -425 c43
-41 57 -77 52 -139 -5 -50 -9 -59 -48 -93 -31 -28 -66 -45 -124 -63 -45 -14
-86 -25 -92 -25 -8 0 -104 291 -98 299 1 1 38 14 81 27 103 31 191 29 229 -6z"/>
<path d="M9206 1428 c-9 -93 -68 -1359 -64 -1363 4 -4 1220 -66 1224 -63 4 5
21 383 18 387 -3 3 -122 10 -267 17 -144 7 -313 16 -374 20 l-113 6 0 72 c0
40 2 75 4 77 3 2 159 -4 347 -14 246 -13 344 -15 349 -7 7 11 23 331 18 335
-2 2 -115 8 -253 14 -137 6 -294 14 -349 18 l-99 6 7 70 c4 39 8 72 9 73 1 1
168 -7 371 -17 203 -11 370 -18 372 -16 4 5 22 382 18 387 -5 4 -1061 58
-1171 59 l-41 1 -6 -62z"/>
</g>
</svg>
